<svg width="12" height="14" viewBox="0 0 12 14" fill="none" xmlns="http://www.w3.org/2000/svg">
<path d="M6.40378 11.5824H5.79118C4.1787 11.5824 2.81041 11.0204 1.68632 9.8964C0.562106 8.77255 0 7.40463 0 5.79263C0 4.18051 0.561986 2.81204 1.68596 1.68722C2.81005 0.562408 4.17821 0 5.79045 0C6.59651 0 7.34967 0.150571 8.04992 0.451712C8.75017 0.752854 9.36337 1.16656 9.88952 1.69283C10.4158 2.21899 10.8295 2.83177 11.1306 3.53117C11.4318 4.23046 11.5824 4.98379 11.5824 5.79118C11.5824 7.29182 11.1768 8.6779 10.3657 9.94943C9.55454 11.2208 8.52715 12.244 7.28349 13.0189C7.19071 13.0677 7.09793 13.0945 7.00516 13.0993C6.91238 13.1042 6.82696 13.0835 6.74889 13.037C6.67096 12.9907 6.60508 12.9309 6.55127 12.8575C6.49746 12.7842 6.46682 12.6951 6.45934 12.5902L6.40378 11.5824ZM7.60092 11.4738C8.45753 10.7499 9.15429 9.90231 9.69118 8.93108C10.2281 7.95986 10.4965 6.91322 10.4965 5.79118C10.4965 4.4761 10.0411 3.36311 9.13016 2.4522C8.21925 1.5413 7.10626 1.08585 5.79118 1.08585C4.4761 1.08585 3.36311 1.5413 2.4522 2.4522C1.5413 3.36311 1.08585 4.4761 1.08585 5.79118C1.08585 7.10626 1.5413 8.21925 2.4522 9.13016C3.36311 10.0411 4.4761 10.4965 5.79118 10.4965H7.60092V11.4738ZM5.79498 9.60829C5.97161 9.60829 6.12188 9.54597 6.24579 9.42134C6.36957 9.29671 6.43147 9.14614 6.43147 8.96963C6.43147 8.79312 6.36921 8.64291 6.2447 8.51901C6.12007 8.3951 5.96944 8.33315 5.79281 8.33315C5.6163 8.33315 5.46609 8.39546 5.34218 8.52009C5.21827 8.64472 5.15632 8.79529 5.15632 8.9718C5.15632 9.14831 5.21864 9.29852 5.34327 9.42243C5.4679 9.54634 5.61847 9.60829 5.79498 9.60829ZM4.25615 4.19028C4.36438 4.23661 4.47254 4.23703 4.58064 4.19155C4.68874 4.14606 4.77718 4.07277 4.84595 3.97166C4.94983 3.81759 5.08345 3.6967 5.24681 3.60899C5.41017 3.52128 5.59627 3.47742 5.80511 3.47742C6.12761 3.47742 6.38966 3.56471 6.59127 3.73929C6.79287 3.91375 6.89367 4.14341 6.89367 4.42826C6.89367 4.60465 6.84728 4.77471 6.75451 4.93843C6.66173 5.10227 6.50072 5.29881 6.27148 5.52804C5.96516 5.81205 5.74195 6.06704 5.60188 6.29302C5.46169 6.519 5.39159 6.74335 5.39159 6.96607C5.39159 7.08587 5.43279 7.18824 5.51519 7.27318C5.59748 7.358 5.69677 7.4004 5.81308 7.4004C5.92938 7.4004 6.02651 7.35655 6.10445 7.26884C6.18238 7.18112 6.2362 7.07652 6.26587 6.95503C6.30762 6.77779 6.40227 6.60122 6.54982 6.42531C6.69738 6.24941 6.8538 6.07887 7.01909 5.9137C7.28162 5.65105 7.47394 5.39611 7.59604 5.1489C7.71813 4.90181 7.77918 4.65466 7.77918 4.40745C7.77918 3.88178 7.59839 3.45896 7.2368 3.139C6.87534 2.81892 6.40275 2.65887 5.81905 2.65887C5.44853 2.65887 5.10691 2.74894 4.79419 2.92907C4.48159 3.10908 4.23643 3.34054 4.05871 3.62347C3.99609 3.73869 3.98379 3.85035 4.02179 3.95845C4.05992 4.06655 4.13804 4.14383 4.25615 4.19028Z" fill="#313943"/>
</svg>
